<svg width="292" height="331" viewBox="0 0 292 331" fill="none" xmlns="http://www.w3.org/2000/svg">
<ellipse cx="7.91207" cy="8.03398" rx="7.91207" ry="8.03398" fill="#FC4C01"/>
<ellipse cx="59.6045" cy="8.03398" rx="7.91207" ry="8.03398" fill="#FC4C01"/>
<ellipse cx="59.6045" cy="60.5227" rx="7.91207" ry="8.03398" fill="#FC4C01"/>
<ellipse cx="7.91207" cy="60.5227" rx="7.91207" ry="8.03398" fill="#FC4C01"/>
<ellipse cx="111.296" cy="60.5227" rx="7.91207" ry="8.03398" fill="#FC4C01"/>
<ellipse cx="59.6045" cy="113.011" rx="7.91207" ry="8.03398" fill="#FC4C01"/>
<ellipse cx="7.91207" cy="113.011" rx="7.91207" ry="8.03398" fill="#FC4C01"/>
<ellipse cx="111.296" cy="113.011" rx="7.91207" ry="8.03398" fill="#FC4C01"/>
<ellipse cx="111.296" cy="8.03398" rx="7.91207" ry="8.03398" fill="#FC4C01"/>
<ellipse cx="162.989" cy="8.03398" rx="7.91207" ry="8.03398" fill="#FC4C01"/>
<ellipse cx="214.681" cy="8.03398" rx="7.91207" ry="8.03398" fill="#FC4C01"/>
<ellipse cx="214.681" cy="60.5227" rx="7.91207" ry="8.03398" fill="#FC4C01"/>
<ellipse cx="162.989" cy="60.5227" rx="7.91207" ry="8.03398" fill="#FC4C01"/>
<ellipse cx="266.373" cy="60.5227" rx="7.91207" ry="8.03398" fill="#FC4C01"/>
<ellipse cx="214.681" cy="113.011" rx="7.91207" ry="8.03398" fill="#FC4C01"/>
<ellipse cx="162.989" cy="113.011" rx="7.91207" ry="8.03398" fill="#FC4C01"/>
<ellipse cx="266.373" cy="113.011" rx="7.91207" ry="8.03398" fill="#FC4C01"/>
<ellipse cx="266.373" cy="8.03398" rx="7.91207" ry="8.03398" fill="#FC4C01"/>
<ellipse cx="7.91207" cy="165.5" rx="7.91207" ry="8.03398" fill="#FC4C01"/>
<ellipse cx="59.6045" cy="165.5" rx="7.91207" ry="8.03398" fill="#FC4C01"/>
<ellipse cx="59.6045" cy="217.989" rx="7.91207" ry="8.03398" fill="#FC4C01"/>
<ellipse cx="7.91207" cy="217.989" rx="7.91207" ry="8.03398" fill="#FC4C01"/>
<ellipse cx="111.296" cy="217.989" rx="7.91207" ry="8.03398" fill="#FC4C01"/>
<ellipse cx="59.6045" cy="270.477" rx="7.91207" ry="8.03398" fill="#FC4C01"/>
<ellipse cx="59.6045" cy="322.966" rx="7.91207" ry="8.03398" fill="#FC4C01"/>
<ellipse cx="7.91207" cy="270.477" rx="7.91207" ry="8.03398" fill="#FC4C01"/>
<ellipse cx="7.91207" cy="322.966" rx="7.91207" ry="8.03398" fill="#FC4C01"/>
<ellipse cx="111.296" cy="270.477" rx="7.91207" ry="8.03398" fill="#FC4C01"/>
<ellipse cx="111.296" cy="322.966" rx="7.91207" ry="8.03398" fill="#FC4C01"/>
<ellipse cx="111.296" cy="165.5" rx="7.91207" ry="8.03398" fill="#FC4C01"/>
<ellipse cx="162.989" cy="165.5" rx="7.91207" ry="8.03398" fill="#FC4C01"/>
<ellipse cx="214.681" cy="165.5" rx="7.91207" ry="8.03398" fill="#FC4C01"/>
<ellipse cx="214.681" cy="217.989" rx="7.91207" ry="8.03398" fill="#FC4C01"/>
<ellipse cx="162.989" cy="217.989" rx="7.91207" ry="8.03398" fill="#FC4C01"/>
<ellipse cx="266.373" cy="217.989" rx="7.91207" ry="8.03398" fill="#FC4C01"/>
<ellipse cx="214.681" cy="270.477" rx="7.91207" ry="8.03398" fill="#FC4C01"/>
<ellipse cx="214.681" cy="322.966" rx="7.91207" ry="8.03398" fill="#FC4C01"/>
<ellipse cx="162.989" cy="270.477" rx="7.91207" ry="8.03398" fill="#FC4C01"/>
<ellipse cx="162.989" cy="322.966" rx="7.91207" ry="8.03398" fill="#FC4C01"/>
<ellipse cx="266.373" cy="270.477" rx="7.91207" ry="8.03398" fill="#FC4C01"/>
<ellipse cx="266.373" cy="322.966" rx="7.91207" ry="8.03398" fill="#FC4C01"/>
<ellipse cx="266.373" cy="165.5" rx="7.91207" ry="8.03398" fill="#FC4C01"/>
</svg>
