<svg width="40" height="39" viewBox="0 0 40 39" fill="none" xmlns="http://www.w3.org/2000/svg">
<path d="M26.4854 5.42416V4.92415C28.1565 4.93761 29.8209 4.94434 31.4785 4.94434C33.3014 4.92806 35.1243 4.92806 36.9473 4.94434L9.94531 4.3584C10.2057 4.68392 10.5882 4.84668 11.0928 4.84668L22.8115 4.89551M26.4854 5.42416C26.3188 5.42282 26.1521 5.42142 25.9854 5.41994V36.0479C25.9854 36.471 25.8226 36.8372 25.4971 37.1465M26.4854 5.42416C28.1564 5.43761 29.8208 5.44434 31.4785 5.44436L31.483 5.44432C33.3029 5.42807 35.1229 5.42807 36.9428 5.44434H36.9473C37.5764 5.44434 38.1293 5.24219 38.4936 4.75754C38.8126 4.33826 38.9854 3.86795 38.9854 3.35742C38.9854 2.83653 38.8163 2.36286 38.4899 1.95241L11.0928 5.34668M26.4854 5.42416V36.0479C26.4854 36.6129 26.2629 37.1044 25.8507 37.5001M25.4971 37.1465C25.1878 37.472 24.8216 37.6348 24.3984 37.6348C23.9753 37.6348 23.6009 37.472 23.2754 37.1465C22.9661 36.8372 22.8115 36.471 22.8115 36.0479V4.89551M25.4971 37.1465L25.8596 37.4909C25.8566 37.494 25.8537 37.4971 25.8507 37.5001M25.4971 37.1465L25.8414 37.509C25.8445 37.506 25.8476 37.5031 25.8507 37.5001M22.8115 4.89551L22.8094 5.3955L22.3115 5.39343M22.8115 4.89551H22.3115V5.39343M11.0928 5.34668C11.0924 5.34668 11.092 5.34668 11.0917 5.34668C10.4711 5.34643 9.93007 5.13973 9.55488 4.67075L9.54749 4.6615L9.5476 4.66142C9.22785 4.24175 9.05469 3.77091 9.05469 3.25977C9.05469 2.73635 9.22542 2.26061 9.55488 1.84879C9.93029 1.37952 10.4717 1.17285 11.0928 1.17285H11.0947L36.9717 1.27051C36.972 1.27051 36.9723 1.27051 36.9727 1.27051L36.9736 1.27051L11.0928 5.34668ZM11.0928 5.34668L22.3115 5.39343M25.8507 37.5001C25.455 37.9123 24.9635 38.1348 24.3984 38.1348C23.8303 38.1348 23.332 37.9102 22.9218 37.5C22.5223 37.1005 22.3115 36.6085 22.3115 36.0479V5.39343M5.14748 36.0723L5.14744 36.0675L4.83008 3.04004C4.83008 3.03918 4.83008 3.03833 4.83008 3.03747C4.82938 2.48325 4.60229 1.99673 4.19987 1.59238C3.81247 1.1866 3.33848 0.953125 2.79199 0.953125C2.22519 0.953125 1.72282 1.17637 1.2997 1.57934L1.2996 1.57923L1.29098 1.58785C0.880768 1.99806 0.65625 2.49636 0.656227 3.06445L0.656273 3.06925L0.973633 36.1211C0.973633 36.1219 0.973633 36.1228 0.973634 36.1236C0.974191 36.7397 1.17912 37.2786 1.65553 37.6393C2.0619 37.9625 2.52654 38.1348 3.03613 38.1348C3.55763 38.1348 4.03179 37.9653 4.44257 37.6382C4.93184 37.2629 5.14746 36.7101 5.14748 36.0723Z" fill="#FC4C01" stroke="#FC4C01"/>
</svg>
