<svg width="159" height="35" viewBox="0 0 159 35" fill="none" xmlns="http://www.w3.org/2000/svg">
<path d="M0.562031 29V0.999998H5.92203L17.842 20.76H15.002L26.722 0.999998H32.082L32.122 29H26.042L26.002 10.32H27.162L17.762 26.04H14.882L5.28203 10.32H6.64203V29H0.562031ZM39.0777 29V0.999998H45.5177V19.24L58.8777 0.999998H64.9577V29H58.5577V10.8L45.1977 29H39.0777ZM90.2939 26.12V6.28H80.6939L80.5739 10.36C80.4939 12.0933 80.3739 13.7333 80.2139 15.28C80.0806 16.8267 79.8672 18.24 79.5739 19.52C79.2806 20.7733 78.8939 21.84 78.4139 22.72C77.9606 23.6 77.3872 24.2267 76.6939 24.6L69.7739 23.72C70.7339 23.7467 71.5206 23.4133 72.1339 22.72C72.7739 22.0267 73.2806 21.0533 73.6539 19.8C74.0272 18.52 74.2939 17.0267 74.4539 15.32C74.6406 13.6133 74.7739 11.76 74.8539 9.76L75.1739 0.999998H96.6939V26.12H90.2939ZM68.8539 34.8L68.8939 23.72H100.614V34.8H94.6139V29H74.8539V34.8H68.8539ZM104.496 29V7.48H110.696V20.28L121.176 7.48H126.896V29H120.696V16.2L110.256 29H104.496ZM146.615 29.48C144.455 29.48 142.441 29.1333 140.575 28.44C138.735 27.72 137.135 26.7067 135.775 25.4C134.415 24.0933 133.348 22.56 132.575 20.8C131.828 19.04 131.455 17.1067 131.455 15C131.455 12.8933 131.828 10.96 132.575 9.2C133.348 7.44 134.415 5.90667 135.775 4.6C137.161 3.29333 138.775 2.29333 140.615 1.6C142.455 0.879999 144.468 0.52 146.655 0.52C149.081 0.52 151.268 0.946666 153.215 1.8C155.188 2.62667 156.841 3.85333 158.175 5.48L154.015 9.32C153.055 8.22667 151.988 7.41333 150.815 6.88C149.641 6.32 148.361 6.04 146.975 6.04C145.668 6.04 144.468 6.25333 143.375 6.68C142.281 7.10666 141.335 7.72 140.535 8.52C139.735 9.32 139.108 10.2667 138.655 11.36C138.228 12.4533 138.015 13.6667 138.015 15C138.015 16.3333 138.228 17.5467 138.655 18.64C139.108 19.7333 139.735 20.68 140.535 21.48C141.335 22.28 142.281 22.8933 143.375 23.32C144.468 23.7467 145.668 23.96 146.975 23.96C148.361 23.96 149.641 23.6933 150.815 23.16C151.988 22.6 153.055 21.76 154.015 20.64L158.175 24.48C156.841 26.1067 155.188 27.3467 153.215 28.2C151.268 29.0533 149.068 29.48 146.615 29.48Z" fill="#FC4C01"/>
</svg>
